{"title":"Remember the Titans 2000 720p Esub BluRay Dual Audio English Hin","magnet":"magnet:?xt=urn:btih:7883c2addf1d805960cd05b498fdb98a79d5ef88&dn=Remember+the+Titans+2000+720p+Esub+BluRay+Dual+Audio+English+Hin&tr=udp%3A%2F%2Ftracker.leechers-paradise.org%3A6969&tr=udp%3A%2F%2Fzer0day.ch%3A1337&tr=udp%3A%2F%2Fopen.demonii.com%3A1337&tr=udp%3A%2F%2Ftracker.coppersurfer.tk%3A6969&tr=udp%3A%2F%2Fexodus.desync.com%3A6969","uploader":"jatt13","categoryP":"video","categoryS":"hd___movies","size":"678114044","seeders":"2","leechers":"23","description":"[center]Video\r\nID                             : 1\r\nCodec ID                       : V_MPEG4/ISO/AVC\r\nDuration                       : 1 h 53 min\r\nBit rate                       : 705 kb/s\r\nWidth                          : 1 280 pixels\r\nHeight                         : 544 pixels\r\nDisplay aspect ratio           : 2.35:1\r\nFrame rate mode                : Constant\r\nFrame rate                     : 23.976 (24000/1001) FPS\r\nStream size                    : 571 MiB (88%)\r\nWriting library                : x264 core 112 r1867 22bfd31\r\n\r\nAudio #1\r\nFormat                         : AAC\r\nDuration                       : 1 h 53 min\r\nBit rate                       : 31.9 kb/s\r\nChannel(s)                     : 2 channels\r\nChannel positions              : Front: L R\r\nSampling rate                  : 48.0 kHz / 24.0 kHz\r\nFrame rate                     : 23.438 FPS (1024 spf)\r\nLanguage                       : English\r\n\r\nAudio #2\r\nFormat                         : AAC\r\nDuration                       : 1 h 48 min\r\nBit rate                       : 61.8 kb/s\r\nChannel(s)                     : 6 channels\r\nChannel positions              : Front: L C R, Side: L R, LFE\r\nSampling rate                  : 44.1 kHz\r\nFrame rate                     : 43.066 FPS (1024 spf)\r\nStream size                    : 47.8 MiB (7%)\r\nLanguage                       : Hindi\r\n\r\nText\r\nDuration                       : 1 h 47 min\r\nStream size                    : 66.4 KiB (0%)\r\nLanguage                       : English\r\n[img]http://i.imgur.com/rJAL3Xw.jpg[/img]\r\n[img]http://i.imgur.com/7o3YGm8.jpg[/img]\r\n[img]http://i.imgur.com/7XYn4r9.jpg[/img]\r\n[img]http://i.imgur.com/AxpZbPO.jpg[/img][/center]","last_updated":"2017-06-29T12:01:27.508Z","parsed":{"xt":"urn:btih:7883c2addf1d805960cd05b498fdb98a79d5ef88","dn":"Remember the Titans 2000 720p Esub BluRay Dual Audio English Hin","tr":["udp://exodus.desync.com:6969","udp://open.demonii.com:1337","udp://tracker.coppersurfer.tk:6969","udp://tracker.leechers-paradise.org:6969","udp://zer0day.ch:1337"],"infoHash":"7883c2addf1d805960cd05b498fdb98a79d5ef88","infoHashBuffer":{"type":"Buffer","data":[120,131,194,173,223,29,128,89,96,205,5,180,152,253,185,138,121,213,239,136]},"name":"Remember the Titans 2000 720p Esub BluRay Dual Audio English Hin","announce":["udp://exodus.desync.com:6969","udp://open.demonii.com:1337","udp://tracker.coppersurfer.tk:6969","udp://tracker.leechers-paradise.org:6969","udp://zer0day.ch:1337"],"urlList":[]}}